<svg width="23" height="23" viewBox="0 0 23 23" fill="none" xmlns="http://www.w3.org/2000/svg">
<path fill-rule="evenodd" clip-rule="evenodd" d="M14.9689 0.969059C15.0385 0.899214 15.1213 0.8438 15.2124 0.80599C15.3035 0.76818 15.4012 0.748718 15.4999 0.748718C15.5985 0.748718 15.6962 0.76818 15.7873 0.80599C15.8784 0.8438 15.9612 0.899214 16.0309 0.969059L22.0309 6.96906C22.1007 7.03873 22.1561 7.12149 22.1939 7.21261C22.2317 7.30373 22.2512 7.40141 22.2512 7.50006C22.2512 7.59871 22.2317 7.69639 22.1939 7.78751C22.1561 7.87863 22.1007 7.96139 22.0309 8.03106L19.1779 10.8841L17.9344 15.8536C17.8398 16.232 17.6485 16.5793 17.3792 16.8614C17.1099 17.1436 16.7719 17.3509 16.3984 17.4631L0.880859 22.1191L5.53686 6.60006C5.64909 6.22695 5.85628 5.88938 6.13815 5.62039C6.42002 5.3514 6.76691 5.16022 7.14486 5.06556L12.1144 3.82356L14.9689 0.969059ZM12.2689 5.33106L7.50936 6.52056C7.38302 6.55209 7.26706 6.61598 7.17291 6.70593C7.07875 6.79588 7.00963 6.90879 6.97236 7.03356L3.11736 19.8811L15.9679 16.0261C16.0919 15.9885 16.2041 15.9194 16.2934 15.8255C16.3828 15.7317 16.4464 15.6163 16.4779 15.4906L17.6689 10.7296L12.2689 5.32956V5.33106Z" fill="#94989B"/>
<path fill-rule="evenodd" clip-rule="evenodd" d="M3.24765 19.8419L10.9997 13.4999C11.2963 13.4999 11.5863 13.412 11.833 13.2471C12.0797 13.0823 12.2719 12.8481 12.3855 12.574C12.499 12.2999 12.5287 11.9983 12.4708 11.7073C12.413 11.4163 12.2701 11.1491 12.0603 10.9393C11.8505 10.7295 11.5833 10.5866 11.2923 10.5288C11.0013 10.4709 10.6997 10.5006 10.4256 10.6141C10.1515 10.7277 9.91727 10.9199 9.75245 11.1666C9.58763 11.4133 9.49965 11.7033 9.49965 11.9999L3.15765 19.7519L3.11865 19.8809L3.24765 19.8419Z" fill="#94989B"/>
</svg>
