<svg width="20" height="18" viewBox="0 0 20 18" fill="none" xmlns="http://www.w3.org/2000/svg">
<path d="M18 0C18.5304 0 19.0391 0.210714 19.4142 0.585786C19.7893 0.960859 20 1.46957 20 2V16C20 16.5304 19.7893 17.0391 19.4142 17.4142C19.0391 17.7893 18.5304 18 18 18H2C1.46957 18 0.960859 17.7893 0.585786 17.4142C0.210714 17.0391 0 16.5304 0 16V2C0 1.46957 0.210714 0.960859 0.585786 0.585786C0.960859 0.210714 1.46957 0 2 0H18ZM18 2H2V12.1L6.995 7.106C7.11108 6.98989 7.24889 6.89779 7.40057 6.83495C7.55225 6.77211 7.71482 6.73977 7.879 6.73977C8.04318 6.73977 8.20575 6.77211 8.35743 6.83495C8.50911 6.89779 8.64692 6.98989 8.763 7.106L12.828 11.172L14.066 9.934C14.1821 9.81789 14.3199 9.72579 14.4716 9.66295C14.6232 9.60011 14.7858 9.56777 14.95 9.56777C15.1142 9.56777 15.2768 9.60011 15.4284 9.66295C15.5801 9.72579 15.7179 9.81789 15.834 9.934L18 12.101V2ZM13.5 4C13.8978 4 14.2794 4.15804 14.5607 4.43934C14.842 4.72064 15 5.10218 15 5.5C15 5.89782 14.842 6.27936 14.5607 6.56066C14.2794 6.84196 13.8978 7 13.5 7C13.1022 7 12.7206 6.84196 12.4393 6.56066C12.158 6.27936 12 5.89782 12 5.5C12 5.10218 12.158 4.72064 12.4393 4.43934C12.7206 4.15804 13.1022 4 13.5 4Z" fill="#94989B"/>
</svg>
